<svg xmlns="http://www.w3.org/2000/svg" viewBox="0 0 512 512">
  <rect width="512" height="512" rx="112" fill="#F7DDD5"/>
  <circle cx="330" cy="230" r="175" fill="#D8A4AF" opacity="0.45"/>

  <g fill="none" stroke="#8D8B4C" stroke-width="14" stroke-linecap="round">
    <path d="M120 430 C120 430 130 300 200 250"/>
  </g>
  <g fill="#8D8B4C">
    <path d="M118 340 C90 320 90 280 118 260 C146 280 146 320 118 340 Z"/>
    <path d="M150 290 C122 270 122 230 150 210 C178 230 178 270 150 290 Z"/>
    <path d="M188 245 C160 225 160 185 188 165 C216 185 216 225 188 245 Z"/>
  </g>

  <rect x="165" y="150" width="225" height="290" rx="26" fill="#6B403B" opacity="0.12"/>
  <rect x="175" y="140" width="225" height="290" rx="26" fill="#FFFBF7"/>
  <rect x="248" y="108" width="80" height="46" rx="14" fill="#D8A4AF"/>
  <circle cx="288" cy="131" r="10" fill="#FFFBF7"/>

  <g>
    <circle cx="223" cy="230" r="24" fill="#8D8B4C"/>
    <path d="M213 230 l7 8 l14 -17" fill="none" stroke="#FFFBF7" stroke-width="7" stroke-linecap="round" stroke-linejoin="round"/>
    <rect x="262" y="222" width="95" height="9" rx="4.5" fill="#D8A4AF"/>
    <rect x="262" y="243" width="70" height="9" rx="4.5" fill="#D8A4AF" opacity="0.7"/>

    <circle cx="223" cy="300" r="24" fill="#8D8B4C"/>
    <path d="M213 300 l7 8 l14 -17" fill="none" stroke="#FFFBF7" stroke-width="7" stroke-linecap="round" stroke-linejoin="round"/>
    <rect x="262" y="292" width="95" height="9" rx="4.5" fill="#D8A4AF"/>
    <rect x="262" y="313" width="70" height="9" rx="4.5" fill="#D8A4AF" opacity="0.7"/>

    <circle cx="223" cy="370" r="24" fill="#8D8B4C"/>
    <path d="M213 370 l7 8 l14 -17" fill="none" stroke="#FFFBF7" stroke-width="7" stroke-linecap="round" stroke-linejoin="round"/>
    <rect x="262" y="362" width="95" height="9" rx="4.5" fill="#D8A4AF"/>
    <rect x="262" y="383" width="70" height="9" rx="4.5" fill="#D8A4AF" opacity="0.7"/>
  </g>

  <g fill="#D8A4AF">
    <path d="M410 108 c6 20 8 22 28 28 c-20 6 -22 8 -28 28 c-6 -20 -8 -22 -28 -28 c20 -6 22 -8 28 -28 Z"/>
  </g>
  <circle cx="440" cy="175" r="10" fill="#6B403B"/>
  <circle cx="405" cy="185" r="7" fill="#8D8B4C"/>
</svg>
